<svg width="193" height="193" viewBox="0 0 193 193" fill="none" xmlns="http://www.w3.org/2000/svg">
<g id="logo">
<path id="circle" d="M192.5 96.5C192.5 149.519 149.519 192.5 96.5 192.5C43.4807 192.5 0.5 149.519 0.5 96.5C0.5 43.4807 43.4807 0.5 96.5 0.5C149.519 0.5 192.5 43.4807 192.5 96.5Z" fill="white" stroke="black"/>
<g id="cb-letter">
<path id="B" d="M116.091 78.4602H96.0705V115.879H116.091V104.439H137.302C145.55 107.307 148.23 109.718 148.504 115.879C147.887 122.229 145.114 124.694 137.302 127.796H122.526C120.993 131.447 119.27 133.302 116.091 136.137C112.844 139.701 110.409 141.462 105.127 144.241H120.142H139.924C146.064 143.172 149.171 141.997 154.463 139.474C159.532 135.554 161.86 133.214 164.949 128.749C167.464 123.666 168.141 120.588 168.048 114.687C167.37 109.069 166.026 105.985 161.613 100.625C157.419 97.0949 154.764 95.6225 149.458 93.952C157.26 89.6214 159.893 85.8956 161.613 77.0302C161.263 68.4565 159.808 64.5222 155.178 58.9167C148.156 52.4088 142.613 50.3302 130.391 48.9067H103.936C109.591 51.7657 111.563 52.9546 114.422 56.0567C118.775 60.688 119.988 62.7679 121.811 65.3518H130.391C139.676 67.6676 142.707 70.3128 142.546 77.0302C142.046 83.4856 138.597 85.7029 130.391 87.7553H116.091V78.4602Z" fill="#141414" stroke="#141414"/>
<path id="dash-bottom" d="M96 124V118H117V124H107H96Z" fill="#141414" stroke="#141414"/>
<path id="C" d="M91.7805 68.2118H117.282C109.369 58.5064 104.434 54.5768 94.6405 50.575C86.423 47.8072 80.3472 47.2409 71.9987 47C58.4374 48.7854 53.4537 51.058 44.1135 58.2017C31.6934 70.8244 27.43 77.5069 26 97.0504C26.7665 108.606 28.6507 114.931 35.0567 125.889C40.664 133.398 44.813 136.947 53.6469 142.334C68.1029 148.462 76.7654 147.577 91.7805 145.194C103.101 140.315 108.663 136.106 117.282 125.889H91.7805C79.387 134.231 68.3112 132.204 54.8385 122.314C46.341 113.022 44.3644 107.441 44.1135 97.0504C44.0194 87.2993 45.1879 81.8911 54.8385 72.2635C66.7872 61.567 75.5737 62.2534 91.7805 68.2118Z" fill="#141414" stroke="#141414"/>
<path id="dash-top" d="M96 76V70H117V76H107H96Z" fill="#141414" stroke="#141414"/>
</g>
</g>
</svg>
