<svg width="193" height="193" viewBox="0 0 193 193" fill="none" xmlns="http://www.w3.org/2000/svg">
<g id="logo">
<circle id="circle" cx="96.5" cy="96.5" r="96.5" fill="#141414"/>
<g id="cb-letter">
<path id="B" d="M116.091 75.4602H96.0705V112.879H116.091V101.439H137.302C145.55 104.307 148.23 106.718 148.504 112.879C147.887 119.229 145.114 121.694 137.302 124.796H122.526C120.993 128.447 119.27 130.302 116.091 133.137C112.844 136.701 110.409 138.462 105.127 141.241H120.142H139.924C146.064 140.172 149.171 138.997 154.463 136.474C159.532 132.554 161.86 130.214 164.949 125.749C167.464 120.666 168.141 117.588 168.048 111.687C167.37 106.069 166.026 102.985 161.613 97.6254C157.419 94.0949 154.764 92.6225 149.458 90.952C157.26 86.6214 159.893 82.8956 161.613 74.0302C161.263 65.4565 159.808 61.5222 155.178 55.9167C148.156 49.4088 142.613 47.3302 130.391 45.9067H103.936C109.591 48.7657 111.563 49.9546 114.422 53.0567C118.775 57.688 119.988 59.7679 121.811 62.3518H130.391C139.676 64.6676 142.707 67.3128 142.546 74.0302C142.046 80.4856 138.597 82.7029 130.391 84.7553H116.091V75.4602Z" fill="white" stroke="#141414"/>
<path id="dash-top" d="M96 73V67H117V73H107H96Z" fill="white" stroke="#141414"/>
<path id="dash-bottom" d="M96 121V115H117V121H107H96Z" fill="white" stroke="#141414"/>
<path id="C" d="M91.7805 65.2118H117.282C109.369 55.5064 104.434 51.5768 94.6405 47.575C86.423 44.8072 80.3472 44.2409 71.9987 44C58.4374 45.7854 53.4537 48.058 44.1135 55.2017C31.6934 67.8244 27.43 74.5069 26 94.0504C26.7665 105.606 28.6507 111.931 35.0567 122.889C40.664 130.398 44.813 133.947 53.6469 139.334C68.1029 145.462 76.7654 144.577 91.7805 142.194C103.101 137.315 108.663 133.106 117.282 122.889H91.7805C79.387 131.231 68.3112 129.204 54.8385 119.314C46.341 110.022 44.3644 104.441 44.1135 94.0504C44.0194 84.2993 45.1879 78.8911 54.8385 69.2635C66.7872 58.567 75.5737 59.2534 91.7805 65.2118Z" fill="white" stroke="#141414"/>
</g>
</g>
</svg>
